PathFileType	4	(X/Y/Z)	C:\Users\Basilio\Documents\Thesis Gigler\squatting_fais\c3dfiles\075\SLS_back_pre3\markers_experimental.trc
DataRate	CameraRate	NumFrames	NumMarkers	Units	OrigDataRate	OrigDataStartFrame	OrigNumFrames
200.000000	200.000000	4	61	mm	200.000000	501	1336
Frame#	Time	FHD			LBHD			C7			T10			CLAV			LSHO			LUUPA			LMUPA			LDUPA			LLEP			LMEP			LRAD			LUL			LRFIN			RSHO			RUPA1			RMUPA			RDUPA			RLEP			RMEP			RRAD			RUL			RUFIN			LASI			RASI			USACR			LSACR			RSACR			LTHI1			LTHI2			LTHI3			LTHI4			LLFC			LMFC			LTIB1			LTIB2			LTIB3			LTIB4			LLMAL			LMMAL			LHEE			LMT1			LMT2			LMT5			RTHI			RTHI2			RTHI3			RTHI4			RLFC			RMFC			RTIB1			RTIB2			RTIB3			RTIB4			RLMAL			RMMAL			RHEE			RMT1			RMT2			RMT5			RBHD			
		X1	Y1	Z1	X2	Y2	Z2	X3	Y3	Z3	X4	Y4	Z4	X5	Y5	Z5	X6	Y6	Z6	X7	Y7	Z7	X8	Y8	Z8	X9	Y9	Z9	X10	Y10	Z10	X11	Y11	Z11	X12	Y12	Z12	X13	Y13	Z13	X14	Y14	Z14	X15	Y15	Z15	X16	Y16	Z16	X17	Y17	Z17	X18	Y18	Z18	X19	Y19	Z19	X20	Y20	Z20	X21	Y21	Z21	X22	Y22	Z22	X23	Y23	Z23	X24	Y24	Z24	X25	Y25	Z25	X26	Y26	Z26	X27	Y27	Z27	X28	Y28	Z28	X29	Y29	Z29	X30	Y30	Z30	X31	Y31	Z31	X32	Y32	Z32	X33	Y33	Z33	X34	Y34	Z34	X35	Y35	Z35	X36	Y36	Z36	X37	Y37	Z37	X38	Y38	Z38	X39	Y39	Z39	X40	Y40	Z40	X41	Y41	Z41	X42	Y42	Z42	X43	Y43	Z43	X44	Y44	Z44	X45	Y45	Z45	X46	Y46	Z46	X47	Y47	Z47	X48	Y48	Z48	X49	Y49	Z49	X50	Y50	Z50	X51	Y51	Z51	X52	Y52	Z52	X53	Y53	Z53	X54	Y54	Z54	X55	Y55	Z55	X56	Y56	Z56	X57	Y57	Z57	X58	Y58	Z58	X59	Y59	Z59	X60	Y60	Z60	X61	Y61	Z61	

502	2.505	-164.8677215576172	1499.017333984375	-756.6215820312501	-316.4784545898438	1397.406982421875	-835.6252441406252	-365.7091674804688	1296.3310546875	-781.450622558594	-482.4536132812501	1001.546691894531	-798.2522583007815	-240.751449584961	1204.336303710938	-777.0891723632815	-254.7008056640626	1265.184692382813	-910.7324829101565	-124.3604202270508	1168.071533203125	-1019.097473144531	-91.46355438232423	1182.747802734375	-985.5769042968752	-57.6483612060547	1149.37255859375	-1022.747619628906	24.94071197509766	1126.531494140625	-1013.055725097656	-5.69773292541504	1054.025512695313	-967.8762207031252	nan	nan	nan	237.6571655273438	1129.821166992188	-863.712585449219	232.8344726562501	1155.129638671875	-759.5750122070314	-273.7127380371094	1246.272216796875	-637.6582641601564	-162.9411163330078	1138.212890625	-516.5003662109376	-122.7360076904297	1154.14501953125	-538.8754272460939	-98.69023895263675	1113.716186523438	-500.604217529297	-28.70352363586426	1096.894287109375	-496.5294799804689	-30.43488693237305	1026.353759765625	-533.4860229492189	165.6893615722657	1137.154907226563	-695.0060424804689	197.0966491699219	1124.622314453125	-624.9717407226564	241.4521026611329	1170.879028320313	-722.5529174804689	-386.4634704589845	807.5231933593752	-939.846618652344	-382.7986450195313	795.193298339844	-687.6617431640626	-518.6239624023439	903.818542480469	-810.218933105469	-533.9942016601564	878.3482055664065	-840.3721923828127	-536.1912841796876	874.866882324219	-782.2646484375002	-370.5869750976563	615.6463623046876	-1035.162109375	-311.3274230957032	555.5756225585939	-1039.590942382813	-276.1379699707032	568.5220947265626	-1007.143310546875	-317.7692565917969	495.2764282226564	-1050.77734375	-306.3147583007813	409.8094787597657	-1049.938232421875	-304.3194580078126	367.0364379882813	-919.0751953125002	-378.7632141113282	303.5181884765626	-1017.327514648438	-433.3413085937501	351.1518554687501	-1067.406494140625	-427.397918701172	310.4505615234376	-1050.621459960938	-505.771209716797	291.7832641601563	-1024.2294921875	-659.1965332031251	328.6445007324219	-1052.2451171875	-640.5974121093751	308.0335083007813	-967.580505371094	-684.4841918945314	387.4826965332032	-1013.232666015625	-721.2077026367189	190.4391784667969	-955.9075927734377	-725.5938720703126	178.1580505371094	-1003.967590332031	-750.0927734375001	213.3157196044922	-1054.5234375	-392.6172180175782	639.0603637695314	-630.6682128906251	-327.4971313476563	626.3216552734376	-634.0488891601564	-307.7657470703126	652.2633666992189	-643.3296508789064	-292.7785949707032	550.1172485351564	-640.4535522460939	-216.4756011962891	433.7244262695314	-682.0198364257814	-190.1842956542969	451.7236633300782	-802.3970947265627	-204.0608825683594	304.6101684570313	-773.4017333984377	-275.4793701171876	240.9849548339844	-720.4624633789064	-247.2783508300782	228.5706481933594	-758.6183471679689	-279.7548522949219	202.4813232421876	-799.9768676757815	-388.5686645507814	112.2542572021485	-767.2013549804689	-356.8047485351563	140.6352996826172	-849.0249633789065	-448.7635192871095	97.5204772949219	-825.9514160156252	-247.0822753906251	55.26546096801759	-836.1212158203127	-245.6754150390626	57.22995376586915	-793.4927978515627	-283.5891418457032	36.1014747619629	-742.0023193359376	-281.9166870117188	1425.7568359375	-679.4008789062501	
503	2.51	-163.9157104492188	1497.617553710938	-756.4562377929689	-316.0698547363282	1396.489013671875	-835.940612792969	-365.4101562500001	1295.376098632813	-781.7630615234377	-482.6934509277345	1000.884460449219	-798.3320312500002	-240.6245727539063	1203.275634765625	-777.2436523437502	-254.5166015625001	1264.216552734375	-910.9141235351565	-123.973861694336	1166.876586914063	-1019.142456054688	-91.77088165283205	1181.740600585938	-985.6849365234377	-57.10762786865236	1148.144653320313	-1022.471862792969	25.05536842346192	1125.365478515625	-1012.747619628906	-5.468271732330323	1053.077026367188	-967.7566528320315	nan	nan	nan	238.3468627929688	1128.9931640625	-864.0927734375002	233.1728973388672	1154.136596679688	-759.4340209960939	-273.4788818359376	1245.300048828125	-637.8332519531251	-162.9986267089844	1137.186889648438	-516.8720092773439	-122.6184310913086	1153.289306640625	-538.9949951171876	-98.585075378418	1113.027221679688	-500.6372680664064	-28.58818817138673	1096.158447265625	-496.5397338867189	-30.35072898864747	1025.560546875	-533.2631225585939	165.9536590576172	1135.8603515625	-695.0193481445314	197.0984191894532	1123.528930664063	-624.9838867187501	241.5977325439454	1169.760620117188	-722.4119262695314	-387.2294921875001	806.814636230469	-940.0867919921877	-383.1511840820313	794.6428222656252	-687.7504272460939	-519.0209350585939	903.2097778320315	-810.3111572265627	-534.4879150390626	877.6187133789065	-840.548278808594	-536.5890502929689	874.2219238281252	-782.3275146484377	-371.8392944335938	615.0554809570314	-1035.494384765625	-311.5369262695313	554.7754516601564	-1039.667724609375	-276.5537719726563	567.8754272460939	-1007.366943359375	-318.1911010742188	494.5847473144532	-1050.759033203125	-306.8580322265626	409.1891479492189	-1050.174438476563	-304.5923461914063	366.4327392578126	-919.156188964844	-379.4474792480469	303.1560974121094	-1017.983154296875	-433.6719055175782	350.4285888671876	-1067.4794921875	-427.6933898925782	309.8749084472657	-1050.750122070313	-506.3674926757814	291.3583984375001	-1024.76708984375	-659.2524414062501	328.0986022949219	-1052.247314453125	-640.8561401367189	307.4721679687501	-967.6420898437502	-684.8455200195314	386.9407653808595	-1013.299438476563	-721.5255737304689	189.8394317626953	-956.1721191406252	-725.7197875976564	177.4692687988282	-1003.91455078125	-750.3181762695314	212.7107238769532	-1054.713623046875	-392.7696228027345	638.6357421875001	-631.0029907226564	-327.5321350097657	625.9765014648439	-634.4348144531251	-307.9280700683594	651.9575805664064	-643.7263183593751	-292.6935729980469	549.8578491210939	-640.9323730468751	-216.2286834716797	433.6939086914064	-682.6423950195314	-190.3212432861328	451.6295776367189	-803.106384277344	-204.0548095703126	304.5258483886719	-774.0205078125002	-275.2727355957032	241.0271148681641	-720.8688354492189	-247.4132385253907	228.6807861328126	-759.2319335937501	-279.7115173339844	202.5498199462891	-800.4284667968752	-388.4834899902345	112.2722396850586	-767.4158935546876	-356.8196411132813	140.5031280517578	-849.2083129882815	-448.778045654297	97.49631500244143	-825.9868774414065	-246.9717254638672	55.19967269897462	-836.1282348632815	-245.6824188232422	57.30247879028322	-793.5603637695315	-283.5423278808594	36.18092346191407	-742.0080566406251	-281.6013183593751	1424.820556640625	-679.7482910156251	
504	2.515	-164.1450347900391	1496.94677734375	-756.9479980468751	-315.8019104003907	1395.291015625	-836.1997070312502	-365.1897583007813	1294.620849609375	-782.0730590820315	-482.9728393554689	1000.134094238281	-798.4160766601565	-240.5994567871094	1202.23095703125	-777.4738769531252	-254.1371612548829	1263.206787109375	-911.0584716796877	-123.2569732666016	1165.861938476563	-1019.083129882813	-91.35984039306642	1180.708618164063	-985.5315551757815	-56.93970870971681	1147.199462890625	-1022.460998535156	25.54762268066407	1124.235473632813	-1012.705322265625	-5.578842163085938	1052.029296875	-967.2520751953127	nan	nan	nan	238.9527435302735	1128.16357421875	-863.945007324219	233.627914428711	1153.133544921875	-759.3245239257814	-273.3882751464844	1244.37451171875	-638.1096191406251	-162.9421691894532	1136.533813476563	-516.9520874023439	-122.4613037109375	1152.63134765625	-539.1348266601564	-98.48815917968753	1112.2939453125	-500.6432189941407	-28.60359573364259	1095.360107421875	-496.4355468750001	-30.36241912841798	1024.694702148438	-533.3002319335939	165.9901123046875	1134.634643554688	-694.8587646484376	197.2300262451172	1122.403564453125	-624.8595581054689	241.8215789794922	1168.70751953125	-722.1845703125001	-387.8425903320314	806.1181640625002	-940.1059570312502	-383.7478027343751	793.8916015625002	-688.0187377929689	-519.4227294921876	902.5561523437502	-810.456726074219	-534.9483032226564	876.8900146484377	-840.6036376953127	-537.1014404296876	873.5286865234377	-782.5120239257815	-371.3722839355469	614.0726318359376	-1035.262573242188	-311.8257446289063	554.0098876953126	-1039.802368164063	-277.0405578613282	567.3873901367189	-1007.572326660156	-318.5027160644532	493.9671936035157	-1050.735961914063	-307.2543334960938	408.5555114746095	-1050.234741210938	-304.8347778320313	365.7510070800782	-919.215759277344	-379.7354736328126	302.5169982910157	-1018.060424804688	-433.9039611816407	349.9264831542969	-1067.57666015625	-427.9926147460939	309.2204895019532	-1050.919921875	-506.642059326172	290.6919860839844	-1024.830932617188	-659.5514526367189	327.6435546875001	-1052.415893554688	-641.2034912109376	306.8957519531251	-967.8030395507815	-685.1687622070314	386.2906799316407	-1013.340087890625	-721.9483032226564	189.1450958251953	-956.3210449218752	-726.4074707031251	177.0169067382813	-1003.845275878906	-751.0592041015626	212.3509368896485	-1054.717041015625	-392.8206176757814	638.2299804687501	-631.2667236328126	-327.6999206542969	625.6705932617189	-634.8917236328126	-308.0841369628907	651.6546020507814	-644.1624755859376	-292.5876464843751	549.6821899414064	-641.3867797851564	-216.0226593017579	433.6202392578126	-683.2283935546876	-190.2418670654297	451.6963500976564	-803.644714355469	-204.0397338867188	304.5138854980469	-774.705505371094	-275.1711730957032	240.9598388671876	-721.2156982421876	-247.291976928711	228.6465606689454	-759.6821899414064	-279.7733459472657	202.6002960205079	-800.8684692382815	-388.4963684082032	112.2361068725586	-767.5892944335939	-356.8304748535157	140.4169311523438	-849.5039062500002	-448.7933959960939	97.50341796875003	-826.0814208984377	-246.9806060791016	55.1059913635254	-836.239440917969	-245.6243743896485	57.32532501220705	-793.6209106445315	-283.5374145507813	36.26758575439454	-742.0624389648439	-281.4266052246094	1423.603637695313	-680.0394287109376	
505	2.52	-163.249496459961	1495.396484375	-756.8195800781251	-315.3684692382813	1394.32763671875	-836.5791015625002	-364.9288024902344	1293.6796875	-782.3698730468752	-483.2040100097657	999.4517211914065	-798.5112915039065	-240.5187530517579	1201.186157226563	-777.6895141601565	-254.0569152832032	1262.154541015625	-911.238464355469	-124.0517807006836	1165.393798828125	-1019.20947265625	-91.06996154785158	1179.595458984375	-985.4124145507815	-56.50347137451173	1146.080688476563	-1022.221069335938	25.72743797302247	1123.173950195313	-1012.321899414063	-6.009805202484133	1051.201049804688	-967.614440917969	nan	nan	nan	239.2268829345704	1127.212524414063	-863.8829345703127	233.8611145019532	1152.317504882813	-759.1192016601564	-273.3424072265626	1243.580810546875	-638.5001220703126	-162.6981964111328	1135.902587890625	-517.0117797851564	-122.3301010131836	1151.885498046875	-539.1799926757814	-98.40653228759768	1111.533447265625	-500.7647705078126	-28.46449279785157	1094.542114257813	-496.4544372558595	-30.27635765075684	1023.826171875	-533.2515258789064	166.280014038086	1133.81396484375	-694.8387451171876	197.3657531738282	1121.423583984375	-624.7759399414064	242.0521087646485	1167.7734375	-721.9182739257814	-388.2074584960939	805.3347778320315	-940.2238769531252	-384.1783752441407	793.1604003906252	-688.1921997070314	-519.8070068359376	901.6724853515627	-810.686218261719	-535.3267822265626	876.0737304687502	-840.672058105469	-537.4930419921876	872.8898925781252	-782.5749511718752	-372.2977905273438	613.5783081054689	-1035.606811523438	-312.4089965820313	553.5095825195314	-1040.06591796875	-277.5523071289063	566.9364624023439	-1007.741760253906	-318.8915100097657	493.391815185547	-1050.687255859375	-307.4095458984376	407.9261169433595	-1050.251098632813	-305.1389160156251	365.2094421386719	-919.3110351562502	-379.9967651367188	301.7941284179688	-1018.081115722656	-434.2156982421876	349.3430175781251	-1067.626953125	-428.3304443359376	308.6087951660157	-1050.942993164063	-506.8442993164064	290.0295410156251	-1024.997802734375	-659.6851196289064	326.9239807128907	-1052.325073242188	-641.6234130859376	306.2298278808594	-967.8733520507815	-685.5654907226564	385.7140197753907	-1013.426574707031	-722.0816650390626	188.470687866211	-956.564636230469	-726.6467895507814	176.3155212402344	-1004.212280273438	-750.8768310546876	211.5319213867188	-1054.913208007813	-392.9087524414064	637.7719726562501	-631.4752197265626	-327.8455810546876	625.3398437500001	-635.3253784179689	-308.2533874511719	651.3468627929689	-644.5816040039064	-293.0862731933594	548.9093017578126	-642.0295410156251	-215.8342895507813	433.5820617675782	-683.8310546875001	-190.2188415527344	451.5652465820314	-804.1853637695315	-204.0807647705079	304.5914001464844	-775.3142089843752	-275.0302124023438	240.9884643554688	-721.6743774414064	-247.2840270996094	228.6934051513672	-760.2600708007814	-279.9159851074219	202.6752014160157	-801.201599121094	-388.4658813476564	112.2991943359375	-767.7546386718751	-356.8296508789063	140.2717437744141	-849.6694335937502	-448.824920654297	97.49845886230472	-826.1428222656252	-247.0308685302735	55.02918243408205	-836.3164672851565	-245.6143798828126	57.37078857421876	-793.7397460937502	-283.5011901855469	36.33000183105469	-742.0776367187501	-281.0863647460938	1422.621826171875	-680.4508666992189	
